<svg version="1.2" baseProfile="tiny-ps" xmlns="http://www.w3.org/2000/svg" viewBox="0 0 512 512" width="20" height="20">
	<title>icon_insta-svg</title>
	<style>
		tspan { white-space:pre }
		.shp0 { fill: #E56361 } 
	</style>
	<g id="Layer">
		<path id="Layer" fill-rule="evenodd" class="shp0" d="M291 8.5C337.3 15.1 381.8 35.1 417.5 65.3C464.7 105.1 495.3 161.5 504.1 225C505.8 237.2 505.9 274.6 504.2 286.5C493.6 361.7 455.7 422.9 394 464.2C363.6 484.5 327.8 498.2 290.5 503.7C275.8 505.8 239 506.1 225.5 504.2C183.9 498.3 150 485.6 117 463.5C57.6 423.7 19.5 363 8.3 290.3C6 275.3 6 236.7 8.3 221.7C15.3 176.3 32.1 136.8 59.8 101.1C68.3 90.1 90 68.4 101 59.9C138.1 31.2 181.5 13 225 8.1C230.2 7.5 235.9 6.8 237.5 6.6C244.3 5.6 280.2 6.9 291 8.5ZM181 104.1C157 106.9 134.6 118 121.9 133.5C112.9 144.5 106.3 159.6 103.5 175.9C101.3 188.2 101.3 323.8 103.5 336.1C105.3 346.5 108.8 356.9 113.4 365.7C125.9 389.4 150.2 404.3 182.5 408C194.3 409.3 317.5 409.3 329.5 408C373.6 403 401.2 377.9 408.5 336.1C409.7 329.3 410 314.6 410 256C410 178.6 409.8 175.6 404.6 160.3C397.1 138.3 384.7 123.9 364.5 113.9C353.2 108.3 343.6 105.6 329.6 104.1C318.1 102.8 192.2 102.8 181 104.1Z" />
		<path id="Layer" fill-rule="evenodd" class="shp0" d="M269 131.7C277 131.9 294.3 132.2 307.5 132.4C334.1 132.8 339 133.6 351.6 139.6C364.4 145.6 375.1 159.7 379.6 176.5C381.4 183 381.5 188.2 381.5 256C381.5 323.8 381.4 329 379.6 335.5C375.1 352.3 364.4 366.4 351.6 372.4C337.9 378.9 335.4 379.2 293.8 379.9C273 380.2 239 380.2 218.3 379.9C176.6 379.2 174.1 378.9 160.4 372.4C147.6 366.4 136.9 352.3 132.4 335.5C130.6 329 130.5 323.8 130.5 256C130.5 188.2 130.6 183 132.4 176.5C136.9 159.7 147.6 145.6 160.4 139.6C174.1 133.1 176.7 132.8 217.5 132.1C237.9 131.8 261 131.6 269 131.7ZM323.6 167C321.2 171.2 321.2 178.9 323.7 183.2C329.7 193.6 343.9 193.8 351.4 183.7C353 181.6 353.5 179.4 353.5 175.1C353.5 170.3 353 168.7 350.6 165.6C349 163.5 346.2 161.2 344.4 160.4C336.9 157.3 327.6 160.2 323.6 167ZM236.8 177C200.1 186.1 175 218.2 175 256C175 301.3 210.7 337 256 337C301.4 337 337 301.4 337 256C337 218 311.7 185.8 274.7 177C263.9 174.4 247.5 174.4 236.8 177Z" />
		<path id="Layer" class="shp0" d="M270.1 205.6C293.1 212.4 308 232.1 308 256C308 270.5 303 282.8 293 292.9C283.2 302.8 270.6 308 256 308C241.5 308 229.2 303 219.1 293C209.2 283.2 204 270.6 204 256C204 251 204.7 245.1 205.6 241.9C210.7 224.7 222.7 212.2 240 206.3C248.1 203.5 261.9 203.2 270.1 205.6Z" />
	</g>
</svg>